<svg width="373" height="66" viewBox="0 0 373 66" fill="none" xmlns="http://www.w3.org/2000/svg">
<path d="M43.0426 43.0426L25.2137 60.8712L7.38493 43.0426C-2.46164 33.1958 -2.46164 17.2315 7.38493 7.38493C17.2315 -2.46164 33.1958 -2.46164 43.0426 7.38493C52.8891 17.2315 52.8891 33.1958 43.0426 43.0426ZM25.2137 30.8168C28.3083 30.8168 30.8168 28.3083 30.8168 25.2137C30.8168 22.1192 28.3083 19.6107 25.2137 19.6107C22.1191 19.6107 19.6107 22.1192 19.6107 25.2137C19.6107 28.3083 22.1191 30.8168 25.2137 30.8168Z" fill="#DFE8F6"/>
<rect width="16.014" height="12.4553" transform="translate(17.7932 19.5728)" fill="#DFE8F6"/>
<g clip-path="url(#clip0_75_13)">
<path opacity="0.3" d="M15.376 19.2671H35.0981V32.9868H15.376V19.2671Z" fill="#F84416"/>
<path d="M35.1574 17.1826H30.3259V14.7668C30.3259 13.4261 29.2509 12.3511 27.9101 12.3511H23.0786C21.7378 12.3511 20.6628 13.4261 20.6628 14.7668V17.1826H15.8313C14.4905 17.1826 13.4276 18.2576 13.4276 19.5984L13.4155 32.8851C13.4155 34.2258 14.4905 35.3008 15.8313 35.3008H35.1574C36.4982 35.3008 37.5732 34.2258 37.5732 32.8851V19.5984C37.5732 18.2576 36.4982 17.1826 35.1574 17.1826ZM23.0786 14.7668H27.9101V17.1826H23.0786V14.7668ZM35.1574 32.8851H15.8313V19.5984H35.1574V32.8851Z" fill="#F84416"/>
</g>
<path d="M66.0496 52.4355V19.7083H74.7002V25.4824H75.0837C75.7656 23.5648 76.9019 22.052 78.4928 20.9441C80.0837 19.8361 81.9871 19.2821 84.2031 19.2821C86.4474 19.2821 88.3579 19.8432 89.9346 20.9654C91.5113 22.0733 92.5624 23.579 93.088 25.4824H93.4289C94.0965 23.6074 95.3039 22.1088 97.0511 20.9867C98.8124 19.8503 100.893 19.2821 103.294 19.2821C106.348 19.2821 108.827 20.2551 110.73 22.2012C112.648 24.133 113.606 26.8745 113.606 30.4256V52.4355H104.551V32.2154C104.551 30.3972 104.068 29.0336 103.102 28.1245C102.136 27.2154 100.929 26.7608 99.48 26.7608C97.8323 26.7608 96.5468 27.2864 95.6235 28.3375C94.7002 29.3745 94.2386 30.7452 94.2386 32.4498V52.4355H85.4389V32.0236C85.4389 30.4185 84.9772 29.1401 84.0539 28.1884C83.1448 27.2367 81.9445 26.7608 80.4531 26.7608C79.4445 26.7608 78.5354 27.0165 77.7258 27.5279C76.9303 28.025 76.2982 28.7282 75.8295 29.6373C75.3607 30.5321 75.1264 31.5833 75.1264 32.7907V52.4355H66.0496ZM128.909 53.0534C126.821 53.0534 124.96 52.6912 123.326 51.9668C121.693 51.2282 120.4 50.1415 119.448 48.7069C118.511 47.258 118.042 45.454 118.042 43.2949C118.042 41.4767 118.376 39.9498 119.044 38.714C119.711 37.4782 120.62 36.4838 121.771 35.731C122.921 34.9782 124.228 34.41 125.691 34.0265C127.169 33.6429 128.717 33.373 130.336 33.2168C132.24 33.0179 133.774 32.8333 134.938 32.6628C136.103 32.4782 136.948 32.2083 137.474 31.8532C138 31.498 138.262 30.9725 138.262 30.2765V30.1486C138.262 28.7992 137.836 27.7551 136.984 27.0165C136.146 26.2779 134.953 25.9086 133.404 25.9086C131.771 25.9086 130.471 26.2708 129.505 26.9952C128.539 27.7054 127.9 28.6003 127.588 29.6799L119.193 28.998C119.619 27.0094 120.457 25.2907 121.707 23.8418C122.957 22.3787 124.569 21.2566 126.544 20.4753C128.532 19.6799 130.833 19.2821 133.447 19.2821C135.265 19.2821 137.005 19.4952 138.667 19.9213C140.343 20.3475 141.828 21.008 143.12 21.9029C144.427 22.7978 145.457 23.9483 146.21 25.3546C146.963 26.7466 147.339 28.4157 147.339 30.3617V52.4355H138.731V47.8972H138.475C137.95 48.9199 137.247 49.8219 136.366 50.6032C135.485 51.3702 134.427 51.9739 133.191 52.4142C131.955 52.8404 130.528 53.0534 128.909 53.0534ZM131.508 46.7892C132.843 46.7892 134.022 46.5265 135.045 46.0009C136.068 45.4611 136.87 44.7367 137.453 43.8276C138.035 42.9185 138.326 41.8887 138.326 40.7381V37.2651C138.042 37.4498 137.651 37.6202 137.154 37.7765C136.671 37.9185 136.125 38.0534 135.514 38.1813C134.903 38.2949 134.292 38.4015 133.681 38.5009C133.071 38.5861 132.517 38.6642 132.019 38.7353C130.954 38.8915 130.024 39.1401 129.228 39.481C128.433 39.8219 127.815 40.2836 127.375 40.8659C126.934 41.4341 126.714 42.1444 126.714 42.9966C126.714 44.2324 127.161 45.177 128.056 45.8304C128.965 46.4696 130.116 46.7892 131.508 46.7892ZM153.181 64.7083V19.7083H162.13V25.2054H162.535C162.932 24.3248 163.508 23.4299 164.26 22.5208C165.027 21.5975 166.022 20.8304 167.243 20.2196C168.479 19.5946 170.013 19.2821 171.846 19.2821C174.232 19.2821 176.434 19.9071 178.451 21.1571C180.468 22.3929 182.08 24.2608 183.287 26.7608C184.495 29.2466 185.099 32.3645 185.099 36.1145C185.099 39.7651 184.509 42.8475 183.33 45.3617C182.165 47.8617 180.574 49.758 178.557 51.0506C176.554 52.329 174.31 52.9682 171.824 52.9682C170.063 52.9682 168.564 52.677 167.329 52.0946C166.107 51.5123 165.106 50.7807 164.324 49.9C163.543 49.0051 162.947 48.1032 162.535 47.1941H162.258V64.7083H153.181ZM162.066 36.0719C162.066 38.0179 162.336 39.7154 162.876 41.1642C163.415 42.6131 164.197 43.7424 165.219 44.552C166.242 45.3475 167.485 45.7452 168.948 45.7452C170.425 45.7452 171.675 45.3404 172.698 44.5307C173.721 43.7069 174.495 42.5705 175.02 41.1216C175.56 39.6586 175.83 37.9753 175.83 36.0719C175.83 34.1827 175.567 32.5208 175.042 31.0861C174.516 29.6515 173.742 28.5293 172.719 27.7196C171.697 26.91 170.439 26.5051 168.948 26.5051C167.471 26.5051 166.221 26.8958 165.198 27.677C164.189 28.4583 163.415 29.5662 162.876 31.0009C162.336 32.4355 162.066 34.1259 162.066 36.0719ZM189.95 52.4355V19.7083H198.6V25.4824H198.984C199.666 23.5648 200.802 22.052 202.393 20.9441C203.984 19.8361 205.887 19.2821 208.103 19.2821C210.347 19.2821 212.258 19.8432 213.835 20.9654C215.411 22.0733 216.462 23.579 216.988 25.4824H217.329C217.997 23.6074 219.204 22.1088 220.951 20.9867C222.712 19.8503 224.793 19.2821 227.194 19.2821C230.248 19.2821 232.727 20.2551 234.63 22.2012C236.548 24.133 237.506 26.8745 237.506 30.4256V52.4355H228.451V32.2154C228.451 30.3972 227.968 29.0336 227.002 28.1245C226.036 27.2154 224.829 26.7608 223.38 26.7608C221.732 26.7608 220.447 27.2864 219.524 28.3375C218.6 29.3745 218.139 30.7452 218.139 32.4498V52.4355H209.339V32.0236C209.339 30.4185 208.877 29.1401 207.954 28.1884C207.045 27.2367 205.845 26.7608 204.353 26.7608C203.345 26.7608 202.435 27.0165 201.626 27.5279C200.83 28.025 200.198 28.7282 199.729 29.6373C199.261 30.5321 199.026 31.5833 199.026 32.7907V52.4355H189.95ZM247.908 64.7083C246.757 64.7083 245.678 64.6159 244.669 64.4313C243.675 64.2608 242.851 64.0407 242.198 63.7708L244.243 56.9952C245.309 57.3219 246.267 57.4995 247.12 57.5279C247.986 57.5563 248.732 57.3574 249.357 56.9313C249.996 56.5051 250.515 55.7807 250.912 54.758L251.445 53.373L239.705 19.7083H249.25L256.026 43.7424H256.367L263.206 19.7083H272.816L260.096 55.9725C259.485 57.7338 258.654 59.2679 257.603 60.5748C256.566 61.8958 255.252 62.9114 253.661 63.6216C252.07 64.3461 250.152 64.7083 247.908 64.7083ZM305.366 22.9043C305.067 21.8674 304.648 20.9512 304.109 20.1557C303.569 19.3461 302.908 18.6642 302.127 18.1103C301.36 17.5421 300.479 17.1088 299.485 16.8105C298.505 16.5123 297.418 16.3631 296.225 16.3631C293.995 16.3631 292.035 16.9171 290.344 18.025C288.668 19.133 287.361 20.7452 286.424 22.8617C285.486 24.964 285.018 27.535 285.018 30.5748C285.018 33.6145 285.479 36.1998 286.403 38.3304C287.326 40.4611 288.633 42.0875 290.323 43.2097C292.013 44.3176 294.009 44.8716 296.31 44.8716C298.398 44.8716 300.181 44.5023 301.658 43.7637C303.15 43.0108 304.286 41.9526 305.067 40.589C305.863 39.2253 306.261 37.6131 306.261 35.7523L308.136 36.0293H296.886V29.0833H315.146V34.5804C315.146 38.4157 314.336 41.7111 312.717 44.4668C311.097 47.2083 308.867 49.3248 306.026 50.8162C303.185 52.2935 299.932 53.0321 296.268 53.0321C292.177 53.0321 288.583 52.1301 285.486 50.3262C282.39 48.508 279.975 45.9299 278.242 42.5918C276.523 39.2395 275.664 35.2623 275.664 30.66C275.664 27.123 276.175 23.9696 277.198 21.1997C278.235 18.4157 279.684 16.0577 281.545 14.1259C283.405 12.1941 285.572 10.7239 288.043 9.71537C290.515 8.70685 293.192 8.20259 296.076 8.20259C298.548 8.20259 300.849 8.56481 302.979 9.28924C305.11 9.99947 306.999 11.008 308.647 12.3148C310.309 13.6216 311.665 15.177 312.717 16.981C313.768 18.7708 314.442 20.7452 314.741 22.9043H305.366ZM322.756 52.4355V19.7083H331.833V52.4355H322.756ZM327.316 15.4895C325.966 15.4895 324.808 15.0421 323.843 14.1472C322.891 13.2381 322.415 12.1515 322.415 10.8872C322.415 9.63725 322.891 8.56481 323.843 7.66992C324.808 6.76083 325.966 6.30628 327.316 6.30628C328.665 6.30628 329.816 6.76083 330.767 7.66992C331.733 8.56481 332.216 9.63725 332.216 10.8872C332.216 12.1515 331.733 13.2381 330.767 14.1472C329.816 15.0421 328.665 15.4895 327.316 15.4895ZM352.648 65.3901C349.708 65.3901 347.186 64.9853 345.084 64.1756C342.996 63.3801 341.334 62.2935 340.098 60.9157C338.862 59.5378 338.06 57.9895 337.69 56.2708L346.085 55.1415C346.341 55.7949 346.746 56.4057 347.3 56.9739C347.854 57.5421 348.585 57.9966 349.494 58.3375C350.418 58.6926 351.54 58.8702 352.861 58.8702C354.835 58.8702 356.462 58.3873 357.74 57.4213C359.033 56.4696 359.679 54.8716 359.679 52.6273V46.6401H359.296C358.898 47.5492 358.301 48.4086 357.506 49.2182C356.71 50.0279 355.688 50.6884 354.438 51.1998C353.188 51.7111 351.696 51.9668 349.963 51.9668C347.506 51.9668 345.269 51.3986 343.252 50.2623C341.249 49.1117 339.651 47.3574 338.458 44.9995C337.279 42.6273 336.689 39.6301 336.689 36.008C336.689 32.3006 337.293 29.204 338.5 26.7182C339.708 24.2324 341.313 22.3716 343.315 21.1358C345.333 19.9 347.541 19.2821 349.942 19.2821C351.774 19.2821 353.308 19.5946 354.544 20.2196C355.78 20.8304 356.774 21.5975 357.527 22.5208C358.294 23.4299 358.884 24.3248 359.296 25.2054H359.637V19.7083H368.649V52.7551C368.649 55.5392 367.967 57.8688 366.604 59.7438C365.24 61.6188 363.351 63.025 360.936 63.9625C358.536 64.9142 355.773 65.3901 352.648 65.3901ZM352.84 45.1486C354.303 45.1486 355.539 44.7864 356.547 44.062C357.57 43.3233 358.351 42.2722 358.891 40.9086C359.445 39.5307 359.722 37.883 359.722 35.9654C359.722 34.0478 359.452 32.3858 358.912 30.9796C358.372 29.5591 357.591 28.4583 356.568 27.677C355.546 26.8958 354.303 26.5051 352.84 26.5051C351.348 26.5051 350.091 26.91 349.068 27.7196C348.046 28.5151 347.271 29.623 346.746 31.0435C346.22 32.464 345.958 34.1046 345.958 35.9654C345.958 37.8546 346.22 39.4881 346.746 40.8659C347.286 42.2296 348.06 43.2878 349.068 44.0407C350.091 44.7793 351.348 45.1486 352.84 45.1486Z" fill="#F84416"/>
<defs>
<clipPath id="clip0_75_13">
<rect width="28.9892" height="28.9892" fill="white" transform="translate(11 9.93555)"/>
</clipPath>
</defs>
</svg>
