<svg width="398" height="63" viewBox="0 0 398 63" fill="none" xmlns="http://www.w3.org/2000/svg">
<path d="M43.0426 43.0426L25.2137 60.8712L7.38493 43.0426C-2.46164 33.1958 -2.46164 17.2315 7.38493 7.38493C17.2315 -2.46164 33.1958 -2.46164 43.0426 7.38493C52.8891 17.2315 52.8891 33.1958 43.0426 43.0426ZM25.2137 30.8168C28.3083 30.8168 30.8168 28.3083 30.8168 25.2137C30.8168 22.1192 28.3083 19.6107 25.2137 19.6107C22.1191 19.6107 19.6107 22.1192 19.6107 25.2137C19.6107 28.3083 22.1191 30.8168 25.2137 30.8168Z" fill="#DFE8F6"/>
<rect width="16.014" height="12.4553" transform="translate(17.7932 19.5728)" fill="#DFE8F6"/>
<g clip-path="url(#clip0_75_13)">
<path opacity="0.3" d="M15.376 19.2671H35.0981V32.9868H15.376V19.2671Z" fill="#F84416"/>
<path d="M35.1574 17.1826H30.3259V14.7668C30.3259 13.4261 29.2509 12.3511 27.9101 12.3511H23.0786C21.7378 12.3511 20.6628 13.4261 20.6628 14.7668V17.1826H15.8313C14.4905 17.1826 13.4276 18.2576 13.4276 19.5984L13.4155 32.8851C13.4155 34.2258 14.4905 35.3008 15.8313 35.3008H35.1574C36.4982 35.3008 37.5732 34.2258 37.5732 32.8851V19.5984C37.5732 18.2576 36.4982 17.1826 35.1574 17.1826ZM23.0786 14.7668H27.9101V17.1826H23.0786V14.7668ZM35.1574 32.8851H15.8313V19.5984H35.1574V32.8851Z" fill="#F84416"/>
</g>
<path d="M83.6917 6.29918H92.811V36.7253C92.811 39.5378 92.1789 41.981 90.9147 44.0549C89.6647 46.1287 87.9246 47.7267 85.6945 48.8489C83.4644 49.9711 80.8721 50.5321 77.9175 50.5321C75.2897 50.5321 72.9033 50.0705 70.7585 49.1472C68.6278 48.2097 66.9374 46.7892 65.6874 44.8858C64.4374 42.9682 63.8195 40.5605 63.8337 37.6628H73.017C73.0454 38.8134 73.2798 39.8006 73.7201 40.6245C74.1746 41.4341 74.7925 42.0591 75.5738 42.4995C76.3693 42.9256 77.3068 43.1387 78.3863 43.1387C79.5227 43.1387 80.4815 42.8972 81.2627 42.4142C82.0582 41.9171 82.6619 41.1926 83.0738 40.2409C83.4857 39.2892 83.6917 38.1174 83.6917 36.7253V6.29918ZM113.855 50.5748C110.546 50.5748 107.683 49.8716 105.269 48.4654C102.868 47.0449 101.014 45.0705 99.7076 42.5421C98.4008 39.9995 97.7474 37.052 97.7474 33.6998C97.7474 30.3191 98.4008 27.3645 99.7076 24.8361C101.014 22.2935 102.868 20.3191 105.269 18.9128C107.683 17.4924 110.546 16.7821 113.855 16.7821C117.165 16.7821 120.02 17.4924 122.421 18.9128C124.835 20.3191 126.696 22.2935 128.003 24.8361C129.31 27.3645 129.963 30.3191 129.963 33.6998C129.963 37.052 129.31 39.9995 128.003 42.5421C126.696 45.0705 124.835 47.0449 122.421 48.4654C120.02 49.8716 117.165 50.5748 113.855 50.5748ZM113.898 43.5435C115.404 43.5435 116.661 43.1174 117.669 42.2651C118.678 41.3986 119.438 40.2196 119.949 38.7282C120.475 37.2367 120.737 35.5392 120.737 33.6358C120.737 31.7324 120.475 30.035 119.949 28.5435C119.438 27.052 118.678 25.873 117.669 25.0066C116.661 24.1401 115.404 23.7069 113.898 23.7069C112.378 23.7069 111.1 24.1401 110.063 25.0066C109.04 25.873 108.266 27.052 107.74 28.5435C107.229 30.035 106.973 31.7324 106.973 33.6358C106.973 35.5392 107.229 37.2367 107.74 38.7282C108.266 40.2196 109.04 41.3986 110.063 42.2651C111.1 43.1174 112.378 43.5435 113.898 43.5435ZM134.836 49.9355V6.29918H143.912V22.7054H144.189C144.587 21.8248 145.162 20.9299 145.915 20.0208C146.682 19.0975 147.677 18.3304 148.898 17.7196C150.134 17.0946 151.668 16.7821 153.501 16.7821C155.887 16.7821 158.089 17.4071 160.106 18.6571C162.123 19.8929 163.735 21.7608 164.942 24.2608C166.15 26.7466 166.753 29.8645 166.753 33.6145C166.753 37.2651 166.164 40.3475 164.985 42.8617C163.82 45.3617 162.229 47.258 160.212 48.5506C158.209 49.829 155.965 50.4682 153.479 50.4682C151.718 50.4682 150.219 50.177 148.983 49.5946C147.762 49.0123 146.76 48.2807 145.979 47.4C145.198 46.5051 144.601 45.6032 144.189 44.6941H143.785V49.9355H134.836ZM143.721 33.5719C143.721 35.5179 143.991 37.2154 144.53 38.6642C145.07 40.1131 145.851 41.2424 146.874 42.052C147.897 42.8475 149.14 43.2452 150.603 43.2452C152.08 43.2452 153.33 42.8404 154.353 42.0307C155.376 41.2069 156.15 40.0705 156.675 38.6216C157.215 37.1586 157.485 35.4753 157.485 33.5719C157.485 31.6827 157.222 30.0208 156.697 28.5861C156.171 27.1515 155.397 26.0293 154.374 25.2196C153.351 24.41 152.094 24.0051 150.603 24.0051C149.126 24.0051 147.875 24.3958 146.853 25.177C145.844 25.9583 145.07 27.0662 144.53 28.5009C143.991 29.9355 143.721 31.6259 143.721 33.5719ZM198.84 26.5407L190.53 27.052C190.388 26.3418 190.083 25.7026 189.614 25.1344C189.145 24.552 188.527 24.0904 187.76 23.7495C187.008 23.3944 186.106 23.2168 185.054 23.2168C183.648 23.2168 182.462 23.5151 181.496 24.1117C180.53 24.6941 180.047 25.4753 180.047 26.4554C180.047 27.2367 180.36 27.8972 180.985 28.437C181.61 28.9767 182.682 29.41 184.202 29.7367L190.125 30.9299C193.307 31.5833 195.679 32.6344 197.242 34.0833C198.804 35.5321 199.586 37.4355 199.586 39.7935C199.586 41.9384 198.954 43.8205 197.689 45.4398C196.439 47.0591 194.721 48.3233 192.533 49.2324C190.36 50.1273 187.853 50.5748 185.012 50.5748C180.679 50.5748 177.228 49.6728 174.657 47.8688C172.1 46.0506 170.601 43.579 170.161 40.454L179.089 39.9853C179.358 41.3063 180.012 42.3148 181.049 43.0108C182.086 43.6926 183.414 44.0336 185.033 44.0336C186.624 44.0336 187.902 43.7282 188.868 43.1174C189.848 42.4924 190.346 41.6898 190.36 40.7097C190.346 39.8858 189.998 39.2111 189.316 38.6855C188.634 38.1458 187.583 37.7338 186.162 37.4498L180.495 36.3205C177.299 35.6813 174.919 34.5733 173.357 32.9966C171.809 31.4199 171.035 29.41 171.035 26.9668C171.035 24.8645 171.603 23.0534 172.739 21.5336C173.89 20.0137 175.502 18.8418 177.576 18.0179C179.664 17.1941 182.107 16.7821 184.905 16.7821C189.039 16.7821 192.292 17.6557 194.664 19.4029C197.05 21.15 198.442 23.5293 198.84 26.5407ZM218.888 50.5748C215.578 50.5748 212.716 49.8716 210.301 48.4654C207.901 47.0449 206.047 45.0705 204.74 42.5421C203.434 39.9995 202.78 37.052 202.78 33.6998C202.78 30.3191 203.434 27.3645 204.74 24.8361C206.047 22.2935 207.901 20.3191 210.301 18.9128C212.716 17.4924 215.578 16.7821 218.888 16.7821C222.198 16.7821 225.053 17.4924 227.453 18.9128C229.868 20.3191 231.729 22.2935 233.036 24.8361C234.343 27.3645 234.996 30.3191 234.996 33.6998C234.996 37.052 234.343 39.9995 233.036 42.5421C231.729 45.0705 229.868 47.0449 227.453 48.4654C225.053 49.8716 222.198 50.5748 218.888 50.5748ZM218.931 43.5435C220.436 43.5435 221.694 43.1174 222.702 42.2651C223.711 41.3986 224.471 40.2196 224.982 38.7282C225.507 37.2367 225.77 35.5392 225.77 33.6358C225.77 31.7324 225.507 30.035 224.982 28.5435C224.471 27.052 223.711 25.873 222.702 25.0066C221.694 24.1401 220.436 23.7069 218.931 23.7069C217.411 23.7069 216.132 24.1401 215.096 25.0066C214.073 25.873 213.299 27.052 212.773 28.5435C212.262 30.035 212.006 31.7324 212.006 33.6358C212.006 35.5392 212.262 37.2367 212.773 38.7282C213.299 40.2196 214.073 41.3986 215.096 42.2651C216.132 43.1174 217.411 43.5435 218.931 43.5435ZM248.775 31.0151V49.9355H239.698V17.2083H248.349V22.9824H248.732C249.457 21.079 250.671 19.5733 252.376 18.4654C254.08 17.3432 256.147 16.7821 258.576 16.7821C260.849 16.7821 262.83 17.2793 264.521 18.2736C266.211 19.2679 267.525 20.6884 268.462 22.535C269.4 24.3674 269.869 26.5549 269.869 29.0975V49.9355H260.792V30.7168C260.806 28.714 260.295 27.1515 259.258 26.0293C258.221 24.8929 256.793 24.3248 254.975 24.3248C253.753 24.3248 252.674 24.5875 251.736 25.1131C250.813 25.6387 250.089 26.4057 249.563 27.4142C249.052 28.4086 248.789 29.6088 248.775 31.0151ZM275.822 49.9355V17.2083H284.473V22.9824H284.856C285.538 21.0648 286.675 19.552 288.265 18.4441C289.856 17.3361 291.76 16.7821 293.976 16.7821C296.22 16.7821 298.131 17.3432 299.707 18.4654C301.284 19.5733 302.335 21.079 302.861 22.9824H303.202C303.869 21.1074 305.077 19.6088 306.824 18.4867C308.585 17.3503 310.666 16.7821 313.067 16.7821C316.121 16.7821 318.599 17.7551 320.503 19.7012C322.42 21.633 323.379 24.3745 323.379 27.9256V49.9355H314.324V29.7154C314.324 27.8972 313.841 26.5336 312.875 25.6245C311.909 24.7154 310.702 24.2608 309.253 24.2608C307.605 24.2608 306.319 24.7864 305.396 25.8375C304.473 26.8745 304.011 28.2452 304.011 29.9498V49.9355H295.212V29.5236C295.212 27.9185 294.75 26.6401 293.827 25.6884C292.917 24.7367 291.717 24.2608 290.226 24.2608C289.217 24.2608 288.308 24.5165 287.498 25.0279C286.703 25.525 286.071 26.2282 285.602 27.1373C285.133 28.0321 284.899 29.0833 284.899 30.2907V49.9355H275.822ZM338.681 50.5534C336.593 50.5534 334.732 50.1912 333.099 49.4668C331.465 48.7282 330.173 47.6415 329.221 46.2069C328.284 44.758 327.815 42.954 327.815 40.7949C327.815 38.9767 328.149 37.4498 328.816 36.214C329.484 34.9782 330.393 33.9838 331.543 33.231C332.694 32.4782 334.001 31.91 335.464 31.5265C336.941 31.1429 338.489 30.873 340.109 30.7168C342.012 30.5179 343.546 30.3333 344.711 30.1628C345.876 29.9782 346.721 29.7083 347.247 29.3532C347.772 28.998 348.035 28.4725 348.035 27.7765V27.6486C348.035 26.2992 347.609 25.2551 346.757 24.5165C345.918 23.7779 344.725 23.4086 343.177 23.4086C341.543 23.4086 340.244 23.7708 339.278 24.4952C338.312 25.2054 337.673 26.1003 337.36 27.1799L328.965 26.498C329.391 24.5094 330.23 22.7907 331.48 21.3418C332.73 19.8787 334.342 18.7566 336.316 17.9753C338.305 17.1799 340.606 16.7821 343.22 16.7821C345.038 16.7821 346.778 16.9952 348.44 17.4213C350.116 17.8475 351.6 18.508 352.893 19.4029C354.2 20.2978 355.23 21.4483 355.982 22.8546C356.735 24.2466 357.112 25.9157 357.112 27.8617V49.9355H348.504V45.3972H348.248C347.722 46.4199 347.019 47.3219 346.139 48.1032C345.258 48.8702 344.2 49.4739 342.964 49.9142C341.728 50.3404 340.301 50.5534 338.681 50.5534ZM341.281 44.2892C342.616 44.2892 343.795 44.0265 344.818 43.5009C345.84 42.9611 346.643 42.2367 347.225 41.3276C347.808 40.4185 348.099 39.3887 348.099 38.2381V34.7651C347.815 34.9498 347.424 35.1202 346.927 35.2765C346.444 35.4185 345.897 35.5534 345.286 35.6813C344.676 35.7949 344.065 35.9015 343.454 36.0009C342.843 36.0861 342.289 36.1642 341.792 36.2353C340.727 36.3915 339.796 36.6401 339.001 36.981C338.205 37.3219 337.588 37.7836 337.147 38.3659C336.707 38.9341 336.487 39.6444 336.487 40.4966C336.487 41.7324 336.934 42.677 337.829 43.3304C338.738 43.9696 339.889 44.2892 341.281 44.2892ZM362.954 62.2083V17.2083H371.902V22.7054H372.307C372.705 21.8248 373.28 20.9299 374.033 20.0208C374.8 19.0975 375.794 18.3304 377.016 17.7196C378.252 17.0946 379.786 16.7821 381.618 16.7821C384.005 16.7821 386.206 17.4071 388.223 18.6571C390.24 19.8929 391.853 21.7608 393.06 24.2608C394.267 26.7466 394.871 29.8645 394.871 33.6145C394.871 37.2651 394.282 40.3475 393.103 42.8617C391.938 45.3617 390.347 47.258 388.33 48.5506C386.327 49.829 384.083 50.4682 381.597 50.4682C379.836 50.4682 378.337 50.177 377.101 49.5946C375.88 49.0123 374.878 48.2807 374.097 47.4C373.316 46.5051 372.719 45.6032 372.307 44.6941H372.03V62.2083H362.954ZM371.838 33.5719C371.838 35.5179 372.108 37.2154 372.648 38.6642C373.188 40.1131 373.969 41.2424 374.992 42.052C376.015 42.8475 377.258 43.2452 378.721 43.2452C380.198 43.2452 381.448 42.8404 382.471 42.0307C383.493 41.2069 384.267 40.0705 384.793 38.6216C385.333 37.1586 385.603 35.4753 385.603 33.5719C385.603 31.6827 385.34 30.0208 384.814 28.5861C384.289 27.1515 383.515 26.0293 382.492 25.2196C381.469 24.41 380.212 24.0051 378.721 24.0051C377.243 24.0051 375.993 24.3958 374.971 25.177C373.962 25.9583 373.188 27.0662 372.648 28.5009C372.108 29.9355 371.838 31.6259 371.838 33.5719Z" fill="#F84416"/>
<defs>
<clipPath id="clip0_75_13">
<rect width="28.9892" height="28.9892" fill="white" transform="translate(11 9.93555)"/>
</clipPath>
</defs>
</svg>
