<svg width="51" height="61" viewBox="0 0 51 61" fill="none" xmlns="http://www.w3.org/2000/svg">
<path d="M43.0426 43.0426L25.2137 60.8712L7.38493 43.0426C-2.46164 33.1958 -2.46164 17.2315 7.38493 7.38493C17.2315 -2.46164 33.1958 -2.46164 43.0426 7.38493C52.8891 17.2315 52.8891 33.1958 43.0426 43.0426ZM25.2137 30.8168C28.3083 30.8168 30.8168 28.3083 30.8168 25.2137C30.8168 22.1192 28.3083 19.6107 25.2137 19.6107C22.1191 19.6107 19.6107 22.1192 19.6107 25.2137C19.6107 28.3083 22.1191 30.8168 25.2137 30.8168Z" fill="#DFE8F6"/>
<rect width="16.014" height="12.4553" transform="translate(17.7932 19.5728)" fill="#DFE8F6"/>
<g clip-path="url(#clip0_76_24)">
<path opacity="0.3" d="M15.376 19.2671H35.0981V32.9868H15.376V19.2671Z" fill="#F84416"/>
<path d="M35.1574 17.1826H30.3259V14.7668C30.3259 13.4261 29.2509 12.3511 27.9101 12.3511H23.0786C21.7378 12.3511 20.6628 13.4261 20.6628 14.7668V17.1826H15.8313C14.4905 17.1826 13.4276 18.2576 13.4276 19.5984L13.4155 32.8851C13.4155 34.2258 14.4905 35.3008 15.8313 35.3008H35.1574C36.4982 35.3008 37.5732 34.2258 37.5732 32.8851V19.5984C37.5732 18.2576 36.4982 17.1826 35.1574 17.1826ZM23.0786 14.7668H27.9101V17.1826H23.0786V14.7668ZM35.1574 32.8851H15.8313V19.5984H35.1574V32.8851Z" fill="#F84416"/>
</g>
<defs>
<clipPath id="clip0_76_24">
<rect width="28.9892" height="28.9892" fill="white" transform="translate(11 9.93555)"/>
</clipPath>
</defs>
</svg>
